<svg xmlns="http://www.w3.org/2000/svg" xmlns:xlink="http://www.w3.org/1999/xlink" width="500" zoomAndPan="magnify" viewBox="0 0 375 374.999991" height="500" preserveAspectRatio="xMidYMid meet" version="1.0"><defs><g/><clipPath id="21f57ae1c6"><path d="M 62.566406 56.765625 L 315.316406 56.765625 L 315.316406 309.515625 L 62.566406 309.515625 Z M 62.566406 56.765625 " clip-rule="nonzero"/></clipPath></defs><rect x="-37.5" width="450" fill="#ffffff" y="-37.499999" height="449.999989" fill-opacity="1"/><rect x="-37.5" width="450" fill="#ffffff" y="-37.499999" height="449.999989" fill-opacity="1"/><g clip-path="url(#21f57ae1c6)"><path fill="#1c3f60" d="M 189.117188 309.867188 C 119.203125 309.867188 62.566406 252.84375 62.566406 183.316406 C 62.566406 113.792969 119.203125 56.765625 189.117188 56.765625 C 259.035156 56.765625 315.667969 113.402344 315.667969 183.316406 C 315.667969 253.234375 258.644531 309.867188 189.117188 309.867188 Z M 189.117188 64.578125 C 123.5 64.578125 70.378906 117.699219 70.378906 183.316406 C 70.378906 248.9375 123.5 302.054688 189.117188 302.054688 C 254.738281 302.054688 307.859375 248.9375 307.859375 183.316406 C 307.859375 117.699219 254.347656 64.578125 189.117188 64.578125 Z M 189.117188 64.578125 " fill-opacity="1" fill-rule="nonzero"/></g><path stroke-linecap="butt" transform="matrix(1.982256, 0, 0, 1.982256, 6.000004, 92.474298)" fill="none" stroke-linejoin="miter" d="M 48.210929 5.138518 C 46.734944 5.138518 47.073888 5.717877 46.336881 6.535679 C 45.838317 7.034243 39.873286 8.750643 38.895864 8.989087 C 32.11303 11.282875 22.058987 14.794499 16.093956 19.202749 C 11.845324 22.395135 12.741951 25.985583 18.706982 26.383646 C 20.342587 26.464441 21.580129 26.543265 22.636375 26.543265 C 25.170577 26.543265 26.806182 26.304822 30.39663 25.904788 C 32.690419 25.646638 31.614466 24.190359 31.054814 23.930239 C 30.895194 23.851414 30.637045 23.851414 30.237011 23.851414 C 28.841821 23.851414 25.98838 24.109564 23.115233 24.109564 C 21.241184 24.109564 19.286341 24.03074 17.729561 23.611 C 16.911758 23.532176 16.911758 23.372557 16.253575 23.212937 C 18.228124 19.443164 32.191855 14.136316 37.179464 12.66033 C 38.736245 12.181472 43.643059 10.206923 45.180134 10.206923 C 43.463734 14.055521 40.531469 38.733448 40.111729 43.719087 C 39.95211 45.256161 39.632871 45.256161 38.3973 45.914345 C 35.145796 47.39033 26.965801 50.66154 26.965801 54.411607 C 26.965801 55.22941 28.362963 55.808769 29.419209 55.808769 C 30.39663 55.808769 31.135609 55.22941 30.158187 53.6746 C 31.793792 52.616383 37.419878 49.025935 39.632871 48.866316 C 39.394428 49.504793 37.339083 72.72447 37.179464 75.897149 C 37.019845 79.428479 36.202042 91.916224 37.260259 94.450426 C 37.579498 95.108609 38.156886 95.766793 38.895864 95.685998 C 40.610293 95.526378 39.95211 91.67581 39.873286 88.4046 C 39.873286 84.575708 40.691088 75.658706 40.850707 71.248484 L 41.828129 60.297814 C 41.926659 57.444373 42.744462 52.37794 42.825257 49.504793 C 42.984876 46.174465 43.22332 47.071092 49.686915 44.536889 C 55.393796 42.323896 61.118413 40.108933 67.321888 40.108933 C 68.319016 40.108933 68.319016 39.949313 67.901247 38.313708 C 67.243064 37.99447 66.265642 37.915646 65.128601 37.915646 C 61.695802 37.915646 56.710163 38.971892 54.834144 39.55125 L 43.542558 43.719087 C 43.542558 40.528672 44.041122 37.415111 44.541657 34.642465 C 45.757522 25.985583 47.073888 17.32673 48.949907 8.989087 C 52.380736 8.250109 55.651946 7.193863 59.323189 6.535679 C 65.526664 5.059694 83.999146 0.889887 94.372428 0.889887 C 96.427772 0.889887 98.222997 1.069212 99.438862 1.469246 C 100.416284 1.867308 101.155262 2.046634 101.236057 3.424089 C 102.132683 3.424089 102.213478 3.343294 102.871661 3.26447 C 102.950486 2.606287 103.110105 2.606287 103.110105 1.967809 C 103.110105 -0.826513 97.405194 -1.72314 94.372428 -1.72314 C 83.181344 -1.72314 62.01504 2.525492 50.585512 5.637082 C 50.086948 5.717877 49.76771 5.796701 49.50759 5.796701 C 48.709493 5.796701 49.269146 5.138518 48.210929 5.138518 Z M 70.267948 58.741034 C 70.267948 61.693005 70.506391 63.07046 73.539157 63.07046 C 75.91177 63.07046 78.445972 55.389029 79.983046 54.332783 C 79.983046 57.844407 82.596073 62.093038 86.685085 62.093038 C 88.082246 62.093038 89.637056 61.614181 91.272661 60.457434 L 93.726068 58.50259 C 97.876169 54.492402 97.397312 52.456764 96.15977 52.456764 C 95.680912 52.456764 95.103524 52.697178 94.70349 53.274566 C 93.546743 54.492402 93.3083 55.22941 91.751519 56.626571 C 89.956295 58.421795 88.241866 59.399217 86.685085 59.399217 C 84.968685 59.399217 83.512406 58.102557 82.854223 55.150585 C 82.117215 52.038995 83.512406 48.367752 80.64123 48.367752 C 79.583013 48.367752 76.231008 55.310205 74.595403 57.844407 L 73.93722 58.821829 C 73.539157 59.320393 73.777601 59.001154 73.539157 59.239598 C 73.539157 56.547747 74.676198 53.434186 75.732444 51.719756 C 78.107027 47.630744 79.742632 46.491733 80.980174 46.491733 C 82.515278 46.491733 83.512406 48.367752 84.649447 48.367752 C 86.763909 48.367752 84.649447 43.719087 80.800849 43.719087 C 75.093967 43.719087 70.267948 54.092369 70.267948 58.741034 Z M 100.743405 67.319092 C 104.574267 67.319092 107.685857 63.728643 109.640701 61.693005 C 110.957067 60.376639 115.863882 54.910171 115.863882 53.355361 C 115.863882 52.616383 115.605732 52.37794 115.286494 52.37794 C 113.729713 52.37794 109.402257 58.183352 109.083019 58.581414 C 107.845477 60.138195 103.596845 64.465651 100.983819 64.465651 C 98.788561 64.465651 97.891934 59.639631 97.891934 57.184253 C 97.891934 48.866316 101.143438 45.175366 97.3914 45.175366 C 95.755795 45.175366 94.937993 48.866316 94.699549 50.582716 C 93.800952 54.750552 93.960571 60.376639 95.915414 64.067588 C 96.814012 65.602692 98.528441 67.319092 100.743405 67.319092 Z M 98.130378 34.882879 C 98.130378 36.678104 99.188595 37.495906 100.325636 37.495906 C 101.96124 37.495906 103.67567 35.700682 102.140566 32.687622 C 101.642002 31.790995 101.062643 31.45205 100.504961 31.45205 C 99.267419 31.45205 98.130378 33.00686 98.130378 34.882879 Z M 89.629174 30.553453 C 89.629174 31.7102 90.446976 31.950614 91.343603 31.950614 C 91.842167 31.950614 92.321025 31.869819 92.740764 31.790995 C 93.477772 30.234215 92.659969 30.553453 94.695608 29.735651 C 95.673029 29.337588 96.410037 28.758229 97.389429 28.360166 C 102.455863 26.383646 107.124234 25.008161 112.509907 23.691795 C 113.327709 23.451381 115.201757 23.112436 115.702292 22.952817 L 114.963314 30.553453 C 114.882519 31.61167 114.803695 33.4266 114.624369 34.482846 C 114.224336 36.857429 114.145511 47.888894 114.145511 50.980778 L 113.905097 54.831347 C 113.905097 60.796378 113.646947 70.511477 114.145511 76.395713 C 114.145511 78.350557 114.224336 81.302528 116.338798 81.302528 C 118.474938 81.302528 117.237396 75.658706 117.237396 73.782687 C 117.077776 70.192238 117.158571 53.853925 117.416721 51.400518 C 117.57634 49.684118 117.416721 45.993169 117.416721 43.640263 C 117.416721 42.483516 117.657135 42.483516 117.657135 41.425299 C 117.657135 40.607496 117.57634 39.630075 117.657135 38.893067 L 119.29274 22.135015 C 121.247584 21.736952 133.674239 19.362369 138.163285 19.362369 C 138.742644 19.362369 139.140707 19.362369 139.479651 19.443164 C 140.457073 19.681607 140.198923 19.362369 140.457073 20.180171 C 143.548957 20.180171 142.571536 16.908961 138.742644 16.908961 C 133.755034 16.908961 128.927044 17.726764 124.199555 18.623391 C 122.962013 18.78301 121.247584 19.283544 119.950923 19.283544 C 119.950923 16.668547 121.586528 18.78301 121.586528 16.668547 C 121.586528 16.169983 121.486027 15.850745 121.486027 15.612301 C 121.407203 14.794499 121.586528 15.432976 121.586528 14.455554 C 121.586528 13.158894 120.928345 12.080971 120.029748 12.080971 C 118.953796 12.080971 117.657135 13.556957 116.839333 17.965207 C 116.259974 20.75953 116.520094 20.020552 113.087295 20.919149 C 108.420894 22.215809 89.629174 26.88221 89.629174 30.553453 Z M 121.568793 60.217019 C 121.568793 62.670427 121.826942 77.71208 124.759208 77.71208 C 126.315988 77.71208 126.814552 77.373135 127.374205 75.658706 C 128.351626 72.645646 129.00981 69.214817 130.326176 65.783988 C 131.303598 63.32861 134.395482 55.570325 135.952262 54.411607 C 135.952262 56.707366 136.031087 60.376639 136.370031 62.171863 C 136.929684 65.523867 138.165256 66.999853 139.881655 66.999853 C 143.710547 66.999853 147.482291 60.138195 149.117896 57.184253 C 149.935699 55.570325 150.991945 54.671728 150.493381 52.697178 C 150.174142 52.616383 149.854904 52.537559 149.596754 52.537559 C 148.958277 52.537559 148.459713 53.114947 147.482291 54.831347 C 146.824108 56.128007 146.165925 57.284754 145.426947 58.50259 C 144.049492 60.457434 142.335063 63.807468 139.881655 64.386826 C 138.823439 62.351188 138.823439 60.457434 138.823439 57.365549 C 138.823439 55.887593 138.823439 50.901954 137.028215 50.901954 C 134.574807 50.901954 133.835829 52.616383 132.600258 54.831347 C 129.088634 61.194441 128.351626 63.647848 126.156369 70.192238 L 125.498186 71.747048 L 125.257771 62.591602 C 125.257771 54.411607 126.077544 44.777304 127.29341 37.255492 C 127.713149 34.482846 128.929015 30.634248 128.351626 28.100046 C 127.791974 28.019251 127.374205 27.940426 127.054966 27.940426 C 126.237164 27.940426 125.99675 28.519785 125.257771 30.634248 C 123.941405 35.860301 122.644745 41.186855 122.386595 46.651352 C 122.3058 47.888894 122.146181 49.764913 122.067357 50.980778 Z M 121.568793 60.217019 " stroke="#fffef9" stroke-width="6.128468" stroke-opacity="1" stroke-miterlimit="4"/><g fill="#1c3f60" fill-opacity="1"><g transform="translate(34.185206, 225.285448)"><g><path d="M 67.378906 -122.613281 C 64.464844 -122.613281 65.113281 -121.476562 63.652344 -119.859375 C 62.683594 -118.886719 50.859375 -115.484375 48.914062 -115 C 35.472656 -110.464844 15.550781 -103.5 3.726562 -94.753906 C -4.695312 -88.4375 -2.914062 -81.308594 8.910156 -80.5 C 12.148438 -80.335938 14.578125 -80.175781 16.683594 -80.175781 C 21.703125 -80.175781 24.945312 -80.660156 32.070312 -81.472656 C 36.605469 -81.957031 34.5 -84.871094 33.367188 -85.359375 C 33.042969 -85.519531 32.554688 -85.519531 31.746094 -85.519531 C 28.992188 -85.519531 23.324219 -85.035156 17.65625 -85.035156 C 13.929688 -85.035156 10.042969 -85.195312 6.964844 -86.007812 C 5.34375 -86.167969 5.34375 -86.492188 4.050781 -86.816406 C 7.9375 -94.265625 35.632812 -104.792969 45.511719 -107.710938 C 48.589844 -108.683594 58.308594 -112.570312 61.386719 -112.570312 C 57.984375 -104.957031 52.15625 -56.042969 51.34375 -46.160156 C 51.019531 -43.085938 50.371094 -43.085938 47.941406 -41.789062 C 41.464844 -38.871094 25.265625 -32.394531 25.265625 -24.945312 C 25.265625 -23.324219 28.019531 -22.191406 30.125 -22.191406 C 32.070312 -22.191406 33.527344 -23.324219 31.585938 -26.402344 C 34.824219 -28.507812 46 -35.632812 50.371094 -35.957031 C 49.886719 -34.660156 45.835938 11.339844 45.511719 17.65625 C 45.191406 24.621094 43.570312 49.402344 45.675781 54.421875 C 46.324219 55.71875 47.457031 57.011719 48.914062 56.851562 C 52.316406 56.527344 51.019531 48.914062 50.859375 42.4375 C 50.859375 34.824219 52.476562 17.167969 52.800781 8.421875 L 54.746094 -13.28125 C 54.90625 -18.949219 56.527344 -28.992188 56.691406 -34.660156 C 57.011719 -41.300781 57.5 -39.519531 70.296875 -44.542969 C 81.632812 -48.914062 92.972656 -53.289062 105.28125 -53.289062 C 107.222656 -53.289062 107.222656 -53.613281 106.414062 -56.851562 C 105.117188 -57.5 103.175781 -57.660156 100.90625 -57.660156 C 94.105469 -57.660156 84.222656 -55.554688 80.5 -54.421875 L 58.148438 -46.160156 C 58.148438 -52.476562 59.117188 -58.632812 60.089844 -64.140625 C 62.519531 -81.308594 65.113281 -98.476562 68.835938 -115 C 75.640625 -116.457031 82.117188 -118.5625 89.40625 -119.859375 C 101.71875 -122.773438 138.324219 -131.035156 158.894531 -131.035156 C 162.941406 -131.035156 166.503906 -130.710938 168.933594 -129.898438 C 170.878906 -129.089844 172.335938 -128.765625 172.5 -126.011719 C 174.28125 -126.011719 174.441406 -126.175781 175.738281 -126.335938 C 175.898438 -127.632812 176.222656 -127.632812 176.222656 -128.929688 C 176.222656 -134.433594 164.886719 -136.21875 158.894531 -136.21875 C 136.703125 -136.21875 94.753906 -127.792969 72.078125 -121.640625 C 71.105469 -121.476562 70.457031 -121.316406 69.972656 -121.316406 C 68.351562 -121.316406 69.484375 -122.613281 67.378906 -122.613281 Z M 67.378906 -122.613281 "/></g></g></g><g fill="#1c3f60" fill-opacity="1"><g transform="translate(145.287454, 225.285448)"><g><path d="M 0 -16.359375 C 0 -10.527344 0.484375 -7.773438 6.480469 -7.773438 C 11.175781 -7.773438 16.195312 -23 19.273438 -25.105469 C 19.273438 -18.140625 24.457031 -9.71875 32.554688 -9.71875 C 35.308594 -9.71875 38.386719 -10.691406 41.625 -12.957031 L 46.484375 -16.84375 C 54.746094 -24.78125 53.773438 -28.832031 51.34375 -28.832031 C 50.371094 -28.832031 49.238281 -28.34375 48.429688 -27.210938 C 46.160156 -24.78125 45.675781 -23.324219 42.597656 -20.570312 C 39.035156 -17.007812 35.632812 -15.0625 32.554688 -15.0625 C 29.15625 -15.0625 26.238281 -17.65625 24.945312 -23.484375 C 23.484375 -29.640625 26.238281 -36.929688 20.570312 -36.929688 C 18.464844 -36.929688 11.824219 -23.160156 8.585938 -18.140625 L 7.289062 -16.195312 C 6.480469 -15.226562 6.964844 -15.875 6.480469 -15.386719 C 6.480469 -20.730469 8.746094 -26.886719 10.851562 -30.289062 C 15.550781 -38.386719 18.789062 -40.65625 21.21875 -40.65625 C 24.296875 -40.65625 26.238281 -36.929688 28.507812 -36.929688 C 32.71875 -36.929688 28.507812 -46.160156 20.894531 -46.160156 C 9.554688 -46.160156 0 -25.589844 0 -16.359375 Z M 0 -16.359375 "/></g></g></g><g fill="#1c3f60" fill-opacity="1"><g transform="translate(192.254876, 225.285448)"><g><path d="M 13.445312 0.648438 C 21.054688 0.648438 27.210938 -6.480469 31.097656 -10.527344 C 33.691406 -13.121094 43.40625 -23.972656 43.40625 -27.050781 C 43.40625 -28.507812 42.921875 -28.992188 42.273438 -28.992188 C 39.195312 -28.992188 30.613281 -17.492188 29.964844 -16.683594 C 27.535156 -13.605469 19.113281 -5.019531 13.929688 -5.019531 C 9.554688 -5.019531 7.773438 -14.578125 7.773438 -19.4375 C 7.773438 -35.957031 14.253906 -43.246094 6.804688 -43.246094 C 3.5625 -43.246094 1.945312 -35.957031 1.457031 -32.554688 C -0.324219 -24.296875 0 -13.121094 3.886719 -5.832031 C 5.667969 -2.753906 9.070312 0.648438 13.445312 0.648438 Z M 8.261719 -63.652344 C 8.261719 -60.089844 10.367188 -58.472656 12.632812 -58.472656 C 15.875 -58.472656 19.273438 -62.035156 16.195312 -68.027344 C 15.226562 -69.808594 14.089844 -70.457031 12.957031 -70.457031 C 10.527344 -70.457031 8.261719 -67.378906 8.261719 -63.652344 Z M 8.261719 -63.652344 "/></g></g></g><g fill="#1c3f60" fill-opacity="1"><g transform="translate(229.180986, 225.285448)"><g><path d="M -45.511719 -72.238281 C -45.511719 -69.972656 -43.894531 -69.484375 -42.113281 -69.484375 C -41.140625 -69.484375 -40.167969 -69.648438 -39.359375 -69.808594 C -37.902344 -72.886719 -39.519531 -72.238281 -35.472656 -73.859375 C -33.527344 -74.667969 -32.070312 -75.800781 -30.125 -76.613281 C -20.085938 -80.5 -10.851562 -83.253906 -0.160156 -85.84375 C 1.457031 -86.332031 5.183594 -86.976562 6.15625 -87.300781 L 4.695312 -72.238281 C 4.535156 -70.132812 4.375 -66.570312 4.050781 -64.464844 C 3.238281 -59.765625 3.078125 -37.902344 3.078125 -31.746094 L 2.589844 -24.132812 C 2.589844 -12.308594 2.105469 6.964844 3.078125 18.625 C 3.078125 22.515625 3.238281 28.34375 7.449219 28.34375 C 11.660156 28.34375 9.230469 17.167969 9.230469 13.445312 C 8.910156 6.316406 9.070312 -26.078125 9.554688 -30.9375 C 9.878906 -34.335938 9.554688 -41.625 9.554688 -46.324219 C 9.554688 -48.589844 10.042969 -48.589844 10.042969 -50.695312 C 10.042969 -52.316406 9.878906 -54.261719 10.042969 -55.71875 L 13.28125 -88.921875 C 17.167969 -89.730469 41.789062 -94.429688 50.695312 -94.429688 C 51.832031 -94.429688 52.640625 -94.429688 53.289062 -94.265625 C 55.230469 -93.78125 54.746094 -94.429688 55.230469 -92.808594 C 61.386719 -92.808594 59.441406 -99.289062 51.832031 -99.289062 C 41.949219 -99.289062 32.394531 -97.667969 23 -95.886719 C 20.570312 -95.5625 17.167969 -94.589844 14.578125 -94.589844 C 14.578125 -99.773438 17.816406 -95.5625 17.816406 -99.773438 C 17.816406 -100.746094 17.65625 -101.394531 17.65625 -101.878906 C 17.492188 -103.5 17.816406 -102.203125 17.816406 -104.148438 C 17.816406 -106.738281 16.519531 -108.84375 14.738281 -108.84375 C 12.632812 -108.84375 10.042969 -105.929688 8.421875 -97.183594 C 7.289062 -91.675781 7.773438 -93.132812 0.972656 -91.351562 C -8.261719 -88.757812 -45.511719 -79.527344 -45.511719 -72.238281 Z M -45.511719 -72.238281 "/></g></g></g><g fill="#1c3f60" fill-opacity="1"><g transform="translate(247.967955, 225.285448)"><g><path d="M -0.972656 -13.445312 C -0.972656 -8.585938 -0.484375 21.21875 5.34375 21.21875 C 8.421875 21.21875 9.394531 20.570312 10.527344 17.167969 C 12.472656 11.175781 13.765625 4.375 16.359375 -2.429688 C 18.300781 -7.289062 24.457031 -22.675781 27.535156 -24.945312 C 27.535156 -20.410156 27.695312 -13.121094 28.34375 -9.554688 C 29.480469 -2.914062 31.90625 0 35.308594 0 C 42.921875 0 50.371094 -13.605469 53.613281 -19.4375 C 55.230469 -22.675781 57.335938 -24.457031 56.367188 -28.34375 C 55.71875 -28.507812 55.070312 -28.667969 54.582031 -28.667969 C 53.289062 -28.667969 52.316406 -27.535156 50.371094 -24.132812 C 49.078125 -21.542969 47.78125 -19.273438 46.324219 -16.84375 C 43.570312 -12.957031 40.167969 -6.316406 35.308594 -5.183594 C 33.203125 -9.230469 33.203125 -12.957031 33.203125 -19.113281 C 33.203125 -22.027344 33.203125 -31.90625 29.640625 -31.90625 C 24.78125 -31.90625 23.324219 -28.507812 20.894531 -24.132812 C 13.929688 -11.5 12.472656 -6.640625 8.097656 6.316406 L 6.804688 9.394531 L 6.316406 -8.746094 C 6.316406 -24.945312 7.9375 -44.054688 10.367188 -58.957031 C 11.175781 -64.464844 13.605469 -72.078125 12.472656 -77.097656 C 11.339844 -77.257812 10.527344 -77.421875 9.878906 -77.421875 C 8.261719 -77.421875 7.773438 -76.289062 6.316406 -72.078125 C 3.726562 -61.710938 1.132812 -51.183594 0.648438 -40.332031 C 0.484375 -37.902344 0.160156 -34.175781 0 -31.746094 Z M -0.972656 -13.445312 "/></g></g></g><path fill="#fffef9" d="M 292.402344 274.335938 C 290.796875 276.148438 289.140625 277.921875 287.441406 279.652344 C 285.742188 281.378906 283.996094 283.0625 282.207031 284.699219 C 280.417969 286.335938 278.589844 287.921875 276.714844 289.464844 C 274.84375 291.003906 272.929688 292.492188 270.980469 293.933594 C 269.027344 295.371094 267.039062 296.757812 265.015625 298.09375 C 262.992188 299.425781 260.933594 300.707031 258.84375 301.933594 C 256.75 303.15625 254.628906 304.328125 252.472656 305.441406 C 250.320312 306.554688 248.136719 307.613281 245.929688 308.609375 C 243.71875 309.609375 241.484375 310.550781 239.226562 311.429688 C 236.96875 312.3125 234.6875 313.132812 232.386719 313.890625 C 230.082031 314.652344 227.761719 315.351562 225.421875 315.992188 C 223.085938 316.628906 220.730469 317.207031 218.359375 317.71875 C 215.992188 318.234375 213.609375 318.683594 211.214844 319.074219 C 208.824219 319.460938 206.421875 319.785156 204.011719 320.050781 C 201.601562 320.3125 199.183594 320.507812 196.765625 320.644531 C 194.34375 320.777344 191.921875 320.847656 189.496094 320.855469 C 187.070312 320.863281 184.648438 320.804688 182.226562 320.683594 C 179.804688 320.5625 177.386719 320.378906 174.976562 320.128906 C 172.566406 319.878906 170.160156 319.570312 167.765625 319.195312 C 165.371094 318.816406 162.988281 318.378906 160.613281 317.878906 C 158.242188 317.378906 155.882812 316.816406 153.542969 316.1875 C 151.199219 315.5625 148.875 314.878906 146.570312 314.128906 C 144.261719 313.382812 141.976562 312.574219 139.714844 311.703125 C 137.449219 310.835938 135.210938 309.910156 132.996094 308.921875 C 130.78125 307.9375 128.59375 306.890625 126.433594 305.789062 C 124.273438 304.6875 122.144531 303.53125 120.046875 302.316406 C 117.949219 301.101562 115.882812 299.832031 113.851562 298.507812 C 111.820312 297.1875 109.824219 295.8125 107.863281 294.382812 C 105.90625 292.953125 103.984375 291.476562 102.105469 289.945312 C 100.222656 288.414062 98.382812 286.835938 96.585938 285.210938 C 94.785156 283.585938 93.03125 281.910156 91.324219 280.191406 C 89.613281 278.472656 87.949219 276.710938 86.332031 274.902344 L 109.246094 254.402344 C 110.5 255.804688 111.792969 257.175781 113.121094 258.511719 C 114.449219 259.847656 115.8125 261.148438 117.210938 262.410156 C 118.609375 263.675781 120.039062 264.902344 121.5 266.089844 C 122.960938 267.28125 124.453125 268.429688 125.976562 269.539062 C 127.5 270.648438 129.050781 271.71875 130.628906 272.746094 C 132.207031 273.773438 133.8125 274.761719 135.441406 275.703125 C 137.074219 276.648438 138.726562 277.546875 140.40625 278.402344 C 142.085938 279.257812 143.785156 280.070312 145.503906 280.835938 C 147.226562 281.605469 148.964844 282.324219 150.726562 283 C 152.484375 283.675781 154.261719 284.300781 156.054688 284.882812 C 157.84375 285.464844 159.652344 286 161.472656 286.484375 C 163.292969 286.96875 165.125 287.410156 166.96875 287.796875 C 168.8125 288.1875 170.664062 288.527344 172.523438 288.820312 C 174.386719 289.109375 176.253906 289.351562 178.128906 289.546875 C 180.003906 289.738281 181.878906 289.882812 183.761719 289.976562 C 185.644531 290.070312 187.527344 290.117188 189.410156 290.109375 C 191.296875 290.105469 193.175781 290.050781 195.058594 289.945312 C 196.941406 289.839844 198.816406 289.6875 200.691406 289.484375 C 202.5625 289.28125 204.429688 289.027344 206.289062 288.726562 C 208.148438 288.425781 210 288.074219 211.839844 287.671875 C 213.683594 287.273438 215.511719 286.828125 217.328125 286.332031 C 219.148438 285.835938 220.949219 285.289062 222.738281 284.699219 C 224.527344 284.109375 226.300781 283.46875 228.054688 282.785156 C 229.8125 282.101562 231.546875 281.371094 233.265625 280.59375 C 234.980469 279.820312 236.675781 279 238.351562 278.132812 C 240.023438 277.265625 241.671875 276.359375 243.296875 275.40625 C 244.925781 274.453125 246.523438 273.457031 248.097656 272.421875 C 249.667969 271.382812 251.214844 270.308594 252.730469 269.1875 C 254.246094 268.070312 255.734375 266.914062 257.1875 265.714844 C 258.644531 264.519531 260.066406 263.285156 261.457031 262.011719 C 262.847656 260.742188 264.203125 259.433594 265.523438 258.089844 C 266.84375 256.746094 268.128906 255.371094 269.378906 253.960938 Z M 292.402344 274.335938 " fill-opacity="1" fill-rule="nonzero"/><g fill="#1c3f60" fill-opacity="1"><g transform="translate(95.648723, 273.898711)"><g><path d="M 8.78125 7.984375 L 9.59375 -0.15625 L 5.84375 0.203125 L 3.296875 3 L 1.4375 1.3125 L 11.4375 -9.6875 L 13.296875 -8 L 8.125 -2.3125 L 18.546875 -3.234375 L 20.734375 -1.25 L 12.203125 -0.421875 L 11 10 Z M 8.78125 7.984375 "/></g></g></g><g fill="#1c3f60" fill-opacity="1"><g transform="translate(122.384035, 294.675579)"><g><path d="M 3.890625 2.171875 L 1.703125 0.953125 L 8.96875 -12.015625 L 11.15625 -10.796875 Z M 3.890625 2.171875 "/></g></g></g><g fill="#1c3f60" fill-opacity="1"><g transform="translate(144.994101, 305.462006)"><g><path d="M 15.640625 -8.5 L 7.859375 -10.8125 L 6.71875 -6.96875 L 13.6875 -4.890625 L 13.046875 -2.734375 L 6.078125 -4.8125 L 4.90625 -0.890625 L 12.921875 1.5 L 12.28125 3.65625 L 1.875 0.5625 L 6.109375 -13.671875 L 16.28125 -10.65625 Z M 15.640625 -8.5 "/></g></g></g><g fill="#1c3f60" fill-opacity="1"><g transform="translate(177.032873, 312.555952)"><g><path d="M 11.375 0.359375 L 8.796875 -4.234375 C 8.648438 -4.222656 8.425781 -4.222656 8.125 -4.234375 L 4.59375 -4.34375 L 4.453125 0.140625 L 1.953125 0.0625 L 2.421875 -14.796875 L 8.453125 -14.609375 C 10.347656 -14.546875 11.804688 -14.054688 12.828125 -13.140625 C 13.847656 -12.222656 14.332031 -10.957031 14.28125 -9.34375 C 14.238281 -8.15625 13.9375 -7.15625 13.375 -6.34375 C 12.820312 -5.539062 12.046875 -4.96875 11.046875 -4.625 L 14.21875 0.453125 Z M 4.671875 -6.578125 L 8.203125 -6.46875 C 10.597656 -6.394531 11.828125 -7.359375 11.890625 -9.359375 C 11.941406 -11.285156 10.769531 -12.285156 8.375 -12.359375 L 4.84375 -12.46875 Z M 4.671875 -6.578125 "/></g></g></g><g fill="#1c3f60" fill-opacity="1"><g transform="translate(211.232008, 311.108478)"><g><path d="M 9.9375 -15.703125 L 3.578125 -3.125 L 12.484375 -5.1875 L 12.984375 -3 L 0.765625 -0.171875 L 0.359375 -1.921875 L 6.75 -14.5 L -1.8125 -12.515625 L -2.3125 -14.71875 L 9.53125 -17.46875 Z M 9.9375 -15.703125 "/></g></g></g><g fill="#1c3f60" fill-opacity="1"><g transform="translate(242.739624, 301.358905)"><g><path d="M 5.3125 -17 L -1.875 -13.25 L -0.015625 -9.6875 L 6.421875 -13.046875 L 7.453125 -11.046875 L 1.015625 -7.6875 L 2.90625 -4.0625 L 10.3125 -7.921875 L 11.359375 -5.921875 L 1.734375 -0.90625 L -5.125 -14.078125 L 4.28125 -18.984375 Z M 5.3125 -17 "/></g></g></g><g fill="#1c3f60" fill-opacity="1"><g transform="translate(270.67752, 284.15332)"><g><path d="M 8.78125 -7.984375 L 0.75 -9.5625 L 0.75 -5.796875 L 3.296875 -3 L 1.4375 -1.3125 L -8.5625 -12.3125 L -6.703125 -14 L -1.53125 -8.3125 L -1.453125 -18.765625 L 0.734375 -20.75 L 0.734375 -12.171875 L 11 -10 Z M 8.78125 -7.984375 "/></g></g></g></svg>