<?xml version="1.0" standalone="no"?>
<!DOCTYPE svg PUBLIC "-//W3C//DTD SVG 20010904//EN"
 "http://www.w3.org/TR/2001/REC-SVG-20010904/DTD/svg10.dtd">
<svg version="1.0" xmlns="http://www.w3.org/2000/svg"
 width="500.000000pt" height="500.000000pt" viewBox="0 0 500.000000 500.000000"
 preserveAspectRatio="xMidYMid meet">
<metadata>
Created by potrace 1.14, written by Peter Selinger 2001-2017
</metadata>
<g transform="translate(0.000000,500.000000) scale(0.100000,-0.100000)"
fill="#000000" stroke="none">
<path d="M2280 4856 c-3 -2 -34 -7 -69 -10 -35 -3 -73 -8 -85 -11 -11 -3 -32
-7 -46 -9 -131 -22 -357 -90 -508 -152 -243 -100 -523 -288 -729 -489 -285
-278 -509 -657 -618 -1045 -15 -52 -29 -106 -31 -120 -3 -14 -7 -32 -9 -40 -3
-8 -7 -33 -10 -55 -4 -22 -8 -47 -10 -55 -19 -74 -28 -529 -13 -650 18 -144
75 -398 100 -443 6 -12 10 -22 9 -22 -10 0 72 -202 131 -320 155 -312 412
-620 686 -823 300 -222 651 -376 997 -435 50 -9 106 -19 125 -23 19 -3 139 -8
265 -9 248 -4 297 0 530 45 104 20 378 105 434 134 14 8 73 38 131 67 382 191
678 454 919 819 72 110 201 355 201 383 0 7 4 17 9 22 11 12 86 233 102 302 6
26 12 53 13 58 43 187 54 301 51 550 -1 127 -5 248 -9 270 -27 168 -40 228
-66 326 -41 148 -90 279 -160 419 -69 141 -67 137 -162 279 -224 338 -547 620
-919 803 -142 70 -352 146 -479 173 -65 15 -212 44 -245 50 -46 8 -528 18
-535 11z"/>
</g>
</svg>
